<svg width="222" height="92" viewBox="0 0 222 92" fill="none" xmlns="http://www.w3.org/2000/svg">
<g clip-path="url(#clip0_711_115)">
<path d="M208.683 20.6539C211.469 18.1214 214.262 15.3265 217.088 12.2694H213.537C211.086 12.2694 209.009 13.1956 207.266 14.9331C206.541 15.6544 205.824 16.351 205.108 17.0231C193.909 6.13062 182.58 1.72804e-05 172.131 1.72804e-05C163.311 1.72804e-05 154.889 4.28652 146.403 12.1629C144.383 10.1712 142.371 8.02389 140.376 5.72902C137.159 2.01623 133.185 -0.00817871 128.29 -0.00817871H114.876C122.116 8.76973 129.609 16.2281 137.118 22.1046C133.453 26.5304 129.748 31.571 125.952 37.1606H128.534C130.986 37.1606 132.908 36.1116 134.3 34.079C136.573 30.7596 138.788 27.7189 140.971 24.9732C152.031 32.8168 163.066 37.1524 173.369 37.1524C181.888 37.1524 190.089 34.2511 198.275 28.8253C198.999 29.7515 199.724 30.7022 200.441 31.6775C203.064 35.2428 206.5 37.1524 210.907 37.1524H221.991C217.634 30.9563 213.171 25.424 208.675 20.6293M179.551 29.3663C170.152 29.3663 159.939 24.3831 149.864 15.4085C155.46 10.4663 161.006 7.8026 166.87 7.8026C175.747 7.8026 185.48 13.925 194.96 24.8093C189.91 27.7844 184.836 29.3663 179.551 29.3663Z" fill="#E8390E"/>
<path d="M100.347 65.9941V79.8372C100.347 81.4682 99.3046 82.5254 97.6758 82.5254H94.19V65.027C94.19 62.5846 92.8543 61.347 90.2155 61.347C88.6762 61.347 87.7966 61.5437 86.8274 61.9043V79.8372C86.8274 81.4682 85.7768 82.5254 84.1561 82.5254H80.6703V59.2488C83.3661 57.8473 86.7623 57.167 90.7937 57.167C96.8287 57.167 100.331 59.9209 100.331 65.9941M49.7297 60.216L46.2032 74.0836L42.0169 57.6096H39.2153C37.4317 57.6096 36.324 58.4702 35.8842 60.2078L32.3577 74.0754L28.8312 60.2078C28.3914 58.4702 27.2837 57.6096 25.5001 57.6096H22.0632L28.9452 82.5172H31.8283C33.6119 82.5172 34.7359 81.6567 35.2082 79.9273L38.9547 66.3711L43.4178 82.5172H46.4638C48.2474 82.5172 49.3713 81.6567 49.8519 79.9273L56.0253 57.6096H53.0526C51.269 57.6096 50.1613 58.4702 49.7215 60.2078M75.8976 65.9941V81.0747C73.2181 82.3615 70.4572 82.968 66.8492 82.968C60.4722 82.968 56.6769 80.1322 56.6769 75.1572C56.6769 68.2726 63.6648 65.7155 70.0988 65.9941V65.404C70.0988 62.6502 68.7794 61.4945 65.6846 61.4945C62.9073 61.4945 60.2523 62.6092 59.3238 63.0354V58.4538C61.083 57.7653 63.3145 57.1588 66.3524 57.1588C72.3874 57.1588 75.8976 59.9127 75.8976 65.9859M70.0988 69.6495C66.0185 69.6495 62.5164 71.2641 62.5164 75.149C62.5164 77.5996 64.2349 79.0585 67.1994 79.0585C68.2582 79.0585 69.317 78.8618 70.0988 78.5258V69.6495ZM21.6641 50.9299H17.5838C15.8001 50.9299 14.4237 51.6757 13.4383 53.1674L6.43407 63.8222V50.9217H2.67136C1.05063 50.9217 0 51.979 0 53.61V82.5254H3.77086C5.39159 82.5254 6.44222 81.4682 6.44222 79.8372V67.953L14.4074 80.2715C15.3766 81.7714 16.7449 82.5254 18.5285 82.5254H23.236L11.9967 65.6335L21.6641 50.9299ZM186.466 57.167C182.443 57.167 179.038 57.8473 176.343 59.2488V82.5254H179.828C181.449 82.5254 182.5 81.4682 182.5 79.8372V61.9043C183.469 61.5355 184.348 61.347 185.888 61.347C188.527 61.347 189.862 62.5846 189.862 65.027V82.5254H193.348C194.969 82.5254 196.019 81.4682 196.019 79.8372V65.9941C196.019 59.9209 192.517 57.167 186.474 57.167M219.785 59.0521V81.8943C219.785 88.3364 216.063 92.0082 209.572 92.0082C206.558 92.0082 203.928 91.4837 201.729 90.4919L202.958 86.0415C204.726 86.9677 206.64 87.4348 208.7 87.4348C212.178 87.4348 213.807 85.935 213.807 82.7385V81.8862C212.577 82.4517 211.192 82.7467 209.661 82.7467C203.561 82.7467 199.627 77.9767 199.627 70.5839C199.627 62.0601 204.001 57.167 211.624 57.167C214.792 57.167 217.529 57.8145 219.785 59.0439M213.807 61.7404C213.228 61.4699 212.455 61.347 211.355 61.347C207.576 61.347 205.736 64.3549 205.736 70.5429C205.736 76.7309 207.389 79.0749 211.086 79.0749C212.096 79.0749 213.057 78.8536 213.807 78.4602V61.7404ZM115.96 57.167C119.128 57.167 121.865 57.8145 124.121 59.0439V81.8862C124.121 88.3282 120.399 92 113.908 92C110.894 92 108.263 91.4755 106.064 90.4837L107.294 86.0333C109.062 86.9595 110.976 87.4266 113.036 87.4266C116.514 87.4266 118.143 85.9268 118.143 82.7303V81.878C116.913 82.4435 115.52 82.7385 113.997 82.7385C107.897 82.7385 103.963 77.9685 103.963 70.5757C103.963 62.0519 108.337 57.1588 115.96 57.1588M118.143 61.7404C117.556 61.4699 116.791 61.347 115.691 61.347C111.912 61.347 110.072 64.3549 110.072 70.5429C110.072 76.7309 111.717 79.0749 115.422 79.0749C116.432 79.0749 117.393 78.8536 118.143 78.4602V61.7404ZM144.555 47.7662H148.033V81.0911C145.557 82.3205 142.625 82.968 139.294 82.968C132.061 82.968 127.745 78.2553 127.745 70.3626C127.745 62.4698 132.013 57.3965 138.626 57.3965C139.856 57.3965 140.931 57.5113 141.884 57.7408V50.4627C141.884 48.8317 142.934 47.7744 144.555 47.7744M141.884 61.4372C141.273 61.2814 140.597 61.2077 139.831 61.2077C134.896 61.2077 133.861 66.0187 133.861 70.0511C133.861 75.8293 135.735 78.7553 139.44 78.7553C140.621 78.7553 141.37 78.6323 141.892 78.3701V61.4372H141.884ZM172.726 70.0921C172.726 78.034 168.695 82.968 162.196 82.968C155.696 82.968 151.649 78.034 151.649 70.0921C151.649 62.1502 155.591 57.167 162.196 57.167C168.801 57.167 172.726 61.9945 172.726 70.0921ZM166.618 70.1823C166.618 64.0681 165.25 61.3388 162.196 61.3388C159.142 61.3388 157.765 64.15 157.765 70.1823C157.765 76.2145 159.215 78.7963 162.196 78.7963C165.177 78.7963 166.618 76.1408 166.618 70.1823Z" fill="white"/>
</g>
<defs>
<clipPath id="clip0_711_115">
<rect width="222" height="92" fill="white"/>
</clipPath>
</defs>
</svg>
